<svg xmlns="http://www.w3.org/2000/svg" viewBox="0 0 512 512">
  <rect width="512" height="512" rx="112" fill="#4F46E5"/>
  
  <!-- Back Cover / Pages Depth -->
  <path d="M156 126 h 232 a 16 16 0 0 1 16 16 v 280 a 16 16 0 0 1 -16 16 h -232 a 16 16 0 0 1 -16 -16 v -280 a 16 16 0 0 1 16 -16 z" fill="#9CA3AF"/>
  <path d="M148 118 h 232 a 16 16 0 0 1 16 16 v 280 a 16 16 0 0 1 -16 16 h -232 a 16 16 0 0 1 -16 -16 v -280 a 16 16 0 0 1 16 -16 z" fill="#D1D5DB"/>

  <!-- Index Tabs (Sticking out to the right) -->
  <!-- Green: narou -->
  <path d="M380 160 h 24 c 8 0 16 8 16 16 v 24 c 0 8 -8 16 -16 16 h -24 Z" fill="#22C55E"/>
  <!-- Blue: kakuyomu -->
  <path d="M380 230 h 24 c 8 0 16 8 16 16 v 24 c 0 8 -8 16 -16 16 h -24 Z" fill="#3B82F6"/>
  <!-- Red: nocturn -->
  <path d="M380 300 h 24 c 8 0 16 8 16 16 v 24 c 0 8 -8 16 -16 16 h -24 Z" fill="#EF4444"/>

  <!-- Front Cover -->
  <path d="M140 110 h 232 a 16 16 0 0 1 16 16 v 280 a 16 16 0 0 1 -16 16 h -232 a 16 16 0 0 1 -16 -16 v -280 a 16 16 0 0 1 16 -16 z" fill="#FFFFFF"/>
  
  <!-- Spine -->
  <path d="M140 110 h 48 v 312 h -48 a 16 16 0 0 1 -16 -16 v -280 a 16 16 0 0 1 16 -16 z" fill="#14532D"/>

  <!-- Decorative Lines on Spine -->
  <rect x="124" y="160" width="64" height="6" fill="#166534"/>
  <rect x="124" y="252" width="64" height="6" fill="#166534"/>
  <rect x="124" y="344" width="64" height="6" fill="#166534"/>
  
  <!-- Book Cover Details (Title / Author lines) -->
  <rect x="220" y="160" width="100" height="24" rx="6" fill="#E5E7EB"/>
  <rect x="220" y="200" width="110" height="12" rx="4" fill="#F3F4F6"/>
  <rect x="220" y="224" width="90" height="12" rx="4" fill="#F3F4F6"/>
  <rect x="220" y="248" width="100" height="12" rx="4" fill="#F3F4F6"/>
</svg>
